<?xml version="1.0" standalone="no"?><!DOCTYPE svg PUBLIC "-//W3C//DTD SVG 1.1//EN" "http://www.w3.org/Graphics/SVG/1.1/DTD/svg11.dtd"><svg t="1570100543404" class="icon" viewBox="0 0 1024 1024" version="1.1" xmlns="http://www.w3.org/2000/svg" p-id="1140" xmlns:xlink="http://www.w3.org/1999/xlink" width="200" height="200"><defs><style type="text/css"></style></defs><path d="M495.1 539c276.7-8.8 510.5 203.1 528.8 479h-75.4c-17.8-233.2-216.3-411.7-451.1-404.2C272.1 620.9 90.9 796.9 75.7 1018H0.9c15.2-261.6 228.5-470.5 494.2-479z m16.3-461.2c-96.9 0-175.5 78.5-175.5 175.4 0 97 78.6 175.6 175.5 175.6 97 0 175.4-78.6 175.4-175.6 0-96.8-78.5-175.4-175.4-175.4z m0-71.9c136.7 0 247.4 110.8 247.4 247.3 0 136.7-110.8 247.4-247.4 247.4-136.6 0.1-247.4-110.7-247.4-247.4C264 116.7 374.8 5.9 511.4 5.9" fill="#1296DB" p-id="1141"></path></svg>